<svg width="24" height="24" viewBox="0 0 24 24" fill="none" xmlns="http://www.w3.org/2000/svg">
<path fill-rule="evenodd" clip-rule="evenodd" d="M7.266 18.9975L4.095 20.055L4.0935 20.0535L5.178 17.3445L4.6605 16.6695C3.585 15.264 3 13.62 3 12C3 7.659 7.035 3.75 12 3.75C16.965 3.75 21 7.659 21 12C21 16.341 16.965 20.25 12 20.25C10.5135 20.25 9.096 19.911 7.821 19.275L7.266 18.9975ZM2.61397 22.0064C2.75284 22.0412 2.89876 22.0355 3.0345 21.99V21.9885L7.1505 20.616C8.65665 21.3664 10.3173 21.7547 12 21.75C18 21.75 22.5 16.971 22.5 12C22.5 7.029 18 2.25 12 2.25C6 2.25 1.5 7.029 1.5 12C1.5 13.989 2.22 15.945 3.468 17.58L2.1 21C2.04677 21.1329 2.03269 21.2782 2.05942 21.4189C2.08615 21.5595 2.15257 21.6896 2.25084 21.7937C2.3491 21.8978 2.47511 21.9716 2.61397 22.0064ZM11.5407 13.1086C11.6863 13.1689 11.8423 13.1999 11.9999 13.1999C12.3182 13.1999 12.6234 13.0735 12.8485 12.8485C13.0735 12.6234 13.1999 12.3182 13.1999 11.9999C13.1999 11.6817 13.0735 11.3764 12.8485 11.1514C12.6234 10.9264 12.3182 10.7999 11.9999 10.7999C11.8423 10.7999 11.6863 10.831 11.5407 10.8913C11.3951 10.9516 11.2628 11.04 11.1514 11.1514C11.04 11.2628 10.9516 11.3951 10.8913 11.5407C10.831 11.6863 10.7999 11.8423 10.7999 11.9999C10.7999 12.1575 10.831 12.3136 10.8913 12.4591C10.9516 12.6047 11.04 12.737 11.1514 12.8485C11.2628 12.9599 11.3951 13.0483 11.5407 13.1086ZM16.0407 13.1086C16.1863 13.1689 16.3423 13.1999 16.4999 13.1999C16.8182 13.1999 17.1234 13.0735 17.3485 12.8485C17.5735 12.6234 17.6999 12.3182 17.6999 11.9999C17.6999 11.6817 17.5735 11.3764 17.3485 11.1514C17.1234 10.9264 16.8182 10.7999 16.4999 10.7999C16.3423 10.7999 16.1863 10.831 16.0407 10.8913C15.8951 10.9516 15.7628 11.04 15.6514 11.1514C15.54 11.2628 15.4516 11.3951 15.3913 11.5407C15.331 11.6863 15.2999 11.8423 15.2999 11.9999C15.2999 12.1575 15.331 12.3136 15.3913 12.4591C15.4516 12.6047 15.54 12.737 15.6514 12.8485C15.7628 12.9599 15.8951 13.0483 16.0407 13.1086ZM7.04071 13.1086C7.1863 13.1689 7.34234 13.1999 7.49993 13.1999C7.81819 13.1999 8.12341 13.0735 8.34845 12.8485C8.5735 12.6234 8.69993 12.3182 8.69993 11.9999C8.69993 11.6817 8.5735 11.3764 8.34845 11.1514C8.12341 10.9264 7.81819 10.7999 7.49993 10.7999C7.34234 10.7999 7.1863 10.831 7.04071 10.8913C6.89512 10.9516 6.76283 11.04 6.6514 11.1514C6.53997 11.2628 6.45158 11.3951 6.39127 11.5407C6.33097 11.6863 6.29993 11.8423 6.29993 11.9999C6.29993 12.1575 6.33097 12.3136 6.39127 12.4591C6.45158 12.6047 6.53997 12.737 6.6514 12.8485C6.76283 12.9599 6.89512 13.0483 7.04071 13.1086Z" fill="currentColor"/>
</svg>
